<?xml version="1.0" encoding="utf-8"?>
<!-- Generator: Adobe Illustrator 16.0.0, SVG Export Plug-In . SVG Version: 6.00 Build 0)  -->
<!DOCTYPE svg PUBLIC "-//W3C//DTD SVG 1.1//EN" "http://www.w3.org/Graphics/SVG/1.1/DTD/svg11.dtd">
<svg version="1.1" id="Layer_1" xmlns="http://www.w3.org/2000/svg" xmlns:xlink="http://www.w3.org/1999/xlink" x="0px" y="0px"
	 width="200px" height="200px" viewBox="0 0 200 200" enable-background="new 0 0 200 200" xml:space="preserve">
<g>
	<rect y="0" fill="#10CCDF" width="100" height="100"/>
	<rect x="100" y="0" fill="#FCC066" width="100" height="100"/>
	<rect y="100" fill="#F26F70" width="100" height="100"/>
	<rect x="100" y="100" fill="#485A7E" width="100" height="100"/>
	<rect y="0" fill="none" width="100" height="100"/>
	<text transform="matrix(1 0 0 1 22.46 81.5)" fill="#485A7E" font-family="'BrandonGrotesque-Black'" font-size="90">B</text>
	<rect x="100" y="0" fill="none" width="100" height="100"/>
	<text transform="matrix(1 0 0 1 127.0059 81.5)" fill="#F26F70" font-family="'BrandonGrotesque-Black'" font-size="90">L</text>
	<rect y="100" fill="none" width="100" height="100"/>
	<text transform="matrix(1 0 0 1 19.7153 181.5)" fill="#FCC066" font-family="'BrandonGrotesque-Black'" font-size="90">C</text>
	<rect x="100" y="100" fill="none" width="100" height="100"/>
	<text transform="matrix(1 0 0 1 125.3398 181.5)" fill="#10CCDF" font-family="'BrandonGrotesque-Black'" font-size="90">S</text>
	<rect x="50" y="50" fill="none" width="100" height="100"/>
	<text transform="matrix(1 0 0 1 89.8755 131.5)" fill="#FFFFFF" font-family="'BrandonGrotesque-Medium'" font-size="90">i</text>
</g>
</svg>
